<?xml version="1.0" encoding="UTF-8" standalone="no"?>
<!DOCTYPE svg PUBLIC "-//W3C//DTD SVG 1.1//EN" "http://www.w3.org/Graphics/SVG/1.1/DTD/svg11.dtd">
<svg width="100%" height="100%" viewBox="0 0 800 600" version="1.1" xmlns="http://www.w3.org/2000/svg" xmlns:xlink="http://www.w3.org/1999/xlink" xml:space="preserve" xmlns:serif="http://www.serif.com/" style="fill-rule:evenodd;clip-rule:evenodd;stroke-linejoin:round;stroke-miterlimit:2;">
    <g transform="matrix(0.48767,0,0,0.48767,442.366,109.408)">
        <path d="M361.453,485.937C162.329,485.937 0.906,377.828 0.906,244.469C0.906,111.109 162.329,3 361.453,3C560.578,3 722,111.109 722,244.469C722,377.828 560.578,485.937 361.453,485.937ZM416.641,97.406C265.289,97.406 142.594,171.314 142.594,262.484C142.594,353.654 265.289,427.562 416.641,427.562C567.992,427.562 679.687,377.033 679.687,262.484C679.687,147.971 567.992,97.406 416.641,97.406Z" style="fill:url(#_Linear1);"/>
    </g>
    <g transform="matrix(0.48767,0,0,0.48767,442.366,109.408)">
        <path d="M550,377C550,377 571.822,383.585 584.5,390C588.899,392.226 596.51,396.668 602,402.5C607.378,408.212 610,414 610,414L696,559L557,559.062L492,437C492,437 478.69,414.131 470.5,407.5C463.668,401.969 460.755,400 454,400L420.974,400L421,558.974L298,559.026L298,152.938L545,152.938C545,152.938 657.5,154.967 657.5,262C657.5,369.033 550,377 550,377ZM496.5,241.024L422.037,240.976L422,310.026L496.5,310.002C496.5,310.002 531,309.895 531,274.877C531,239.155 496.5,241.024 496.5,241.024Z" style="fill:url(#_Linear2);"/>
    </g>
    <g id="g1894" transform="matrix(2.49428,0,0,2.49428,-107.087,-44.2859)">
        <path id="path8615" d="M99.75,67.469C71.718,67.469 73.469,79.625 73.469,79.625L73.5,92.219L100.25,92.219L100.25,96L62.875,96C62.875,96 44.938,93.966 44.938,122.25C44.937,150.534 60.594,149.531 60.594,149.531L69.938,149.531L69.938,136.406C69.938,136.406 69.434,120.75 85.344,120.75L111.875,120.75C111.875,120.75 126.781,120.991 126.781,106.344L126.781,82.125C126.781,82.125 129.044,67.469 99.75,67.469ZM85,75.938C87.661,75.937 89.813,78.089 89.813,80.75C89.813,83.411 87.661,85.563 85,85.563C82.339,85.563 80.188,83.411 80.188,80.75C80.187,78.089 82.339,75.938 85,75.938Z" style="fill:url(#_Linear3);fill-rule:nonzero;"/>
        <path id="path8620" d="M100.546,177.315C128.578,177.315 126.827,165.159 126.827,165.159L126.796,152.565L100.046,152.565L100.046,148.784L137.421,148.784C137.421,148.784 155.359,150.818 155.359,122.534C155.359,94.249 139.702,95.252 139.702,95.252L130.359,95.252L130.359,108.377C130.359,108.377 130.862,124.034 114.952,124.034L88.421,124.034C88.421,124.034 73.515,123.793 73.515,138.44L73.515,162.659C73.515,162.659 71.252,177.315 100.546,177.315ZM115.296,168.846C112.635,168.846 110.484,166.695 110.484,164.034C110.484,161.372 112.635,159.221 115.296,159.221C117.958,159.221 120.109,161.372 120.109,164.034C120.109,166.695 117.958,168.846 115.296,168.846Z" style="fill:url(#_Linear4);fill-rule:nonzero;"/>
    </g>
    <defs>
        <linearGradient id="_Linear1" x1="0" y1="0" x2="1" y2="0" gradientUnits="userSpaceOnUse" gradientTransform="matrix(721.094,482.937,-482.937,721.094,0.906,3)"><stop offset="0" style="stop-color:rgb(203,206,208);stop-opacity:1"/><stop offset="1" style="stop-color:rgb(132,131,139);stop-opacity:1"/></linearGradient>
        <linearGradient id="_Linear2" x1="0" y1="0" x2="1" y2="0" gradientUnits="userSpaceOnUse" gradientTransform="matrix(398,406.124,-406.124,398,298,152.938)"><stop offset="0" style="stop-color:rgb(39,109,195);stop-opacity:1"/><stop offset="1" style="stop-color:rgb(22,92,170);stop-opacity:1"/></linearGradient>
        <linearGradient id="_Linear3" x1="0" y1="0" x2="1" y2="0" gradientUnits="userSpaceOnUse" gradientTransform="matrix(54.6,54.7826,-54.7826,54.6,55.5492,77.0703)"><stop offset="0" style="stop-color:rgb(56,126,184);stop-opacity:1"/><stop offset="1" style="stop-color:rgb(54,105,148);stop-opacity:1"/></linearGradient>
        <linearGradient id="_Linear4" x1="0" y1="0" x2="1" y2="0" gradientUnits="userSpaceOnUse" gradientTransform="matrix(58.6406,56.1807,-56.1807,58.6406,89.1367,111.921)"><stop offset="0" style="stop-color:rgb(255,224,82);stop-opacity:1"/><stop offset="1" style="stop-color:rgb(255,195,49);stop-opacity:1"/></linearGradient>
    </defs>
</svg>
