<?xml version="1.0" encoding="UTF-8" standalone="no"?>
<!DOCTYPE svg PUBLIC "-//W3C//DTD SVG 1.1//EN" "http://www.w3.org/Graphics/SVG/1.1/DTD/svg11.dtd">
<svg width="100%" height="100%" viewBox="0 0 800 600" version="1.1" xmlns="http://www.w3.org/2000/svg" xmlns:xlink="http://www.w3.org/1999/xlink" xml:space="preserve" xmlns:serif="http://www.serif.com/" style="fill-rule:evenodd;clip-rule:evenodd;stroke-linejoin:round;stroke-miterlimit:2;">
    <g transform="matrix(1.29299,0,0,1.28718,287.387,-293.769)">
        <ellipse cx="139.9" cy="506.7" rx="28.7" ry="8.9" style="fill:rgb(146,146,146);"/>
    </g>
    <g transform="matrix(1.29299,0,0,1.28718,287.387,-293.769)">
        <path d="M139.9,560.4C122.2,560.4 107.9,555.5 107.9,549.5L107.9,562.7C107.9,568.7 122.2,573.6 139.9,573.6C157.6,573.6 171.9,568.7 171.9,562.7L171.9,549.5C171.9,555.5 157.6,560.4 139.9,560.4Z" style="fill:rgb(192,192,192);fill-rule:nonzero;"/>
    </g>
    <g transform="matrix(1.29299,0,0,1.28718,287.387,-293.769)">
        <path d="M139.9,518.5C122.2,518.5 107.9,513.6 107.9,507.6L107.9,519.9C107.9,525.9 122.2,530.8 139.9,530.8C157.6,530.8 171.9,525.9 171.9,519.9L171.9,507.6C171.9,513.6 157.6,518.5 139.9,518.5Z" style="fill:rgb(192,192,192);fill-rule:nonzero;"/>
    </g>
    <g transform="matrix(1.29299,0,0,1.28718,287.387,-293.769)">
        <path d="M139.9,539.1C122.2,539.1 107.9,534.2 107.9,528.2L107.9,541.2C107.9,547.2 122.2,552.1 139.9,552.1C157.6,552.1 171.9,547.2 171.9,541.2L171.9,528.2C171.9,534.2 157.6,539.1 139.9,539.1Z" style="fill:rgb(192,192,192);fill-rule:nonzero;"/>
    </g>
    <g transform="matrix(1.29299,0,0,1.28718,287.387,-293.769)">
        <path d="M139.9,532.9C122.2,532.9 107.9,528 107.9,522L107.9,525.8C107.9,531.8 122.2,536.7 139.9,536.7C157.6,536.7 171.9,531.8 171.9,525.8L171.9,522C171.9,528 157.6,532.9 139.9,532.9Z" style="fill:rgb(146,146,146);fill-rule:nonzero;"/>
    </g>
    <g transform="matrix(1.29299,0,0,1.28718,287.387,-293.769)">
        <path d="M139.9,554.5C122.2,554.5 107.9,549.6 107.9,543.6L107.9,547.4C107.9,553.4 122.2,558.3 139.9,558.3C157.6,558.3 171.9,553.4 171.9,547.4L171.9,543.6C171.9,549.6 157.6,554.5 139.9,554.5Z" style="fill:rgb(146,146,146);fill-rule:nonzero;"/>
    </g>
    <g transform="matrix(1.29299,0,0,1.28718,388.459,-251.292)">
        <ellipse cx="139.9" cy="506.7" rx="28.7" ry="8.9" style="fill:rgb(146,146,146);"/>
    </g>
    <g transform="matrix(1.29299,0,0,1.28718,388.459,-251.292)">
        <path d="M139.9,560.4C122.2,560.4 107.9,555.5 107.9,549.5L107.9,562.7C107.9,568.7 122.2,573.6 139.9,573.6C157.6,573.6 171.9,568.7 171.9,562.7L171.9,549.5C171.9,555.5 157.6,560.4 139.9,560.4Z" style="fill:rgb(192,192,192);fill-rule:nonzero;"/>
    </g>
    <g transform="matrix(1.29299,0,0,1.28718,388.459,-251.292)">
        <path d="M139.9,518.5C122.2,518.5 107.9,513.6 107.9,507.6L107.9,519.9C107.9,525.9 122.2,530.8 139.9,530.8C157.6,530.8 171.9,525.9 171.9,519.9L171.9,507.6C171.9,513.6 157.6,518.5 139.9,518.5Z" style="fill:rgb(192,192,192);fill-rule:nonzero;"/>
    </g>
    <g transform="matrix(1.29299,0,0,1.28718,388.459,-251.292)">
        <path d="M139.9,539.1C122.2,539.1 107.9,534.2 107.9,528.2L107.9,541.2C107.9,547.2 122.2,552.1 139.9,552.1C157.6,552.1 171.9,547.2 171.9,541.2L171.9,528.2C171.9,534.2 157.6,539.1 139.9,539.1Z" style="fill:rgb(192,192,192);fill-rule:nonzero;"/>
    </g>
    <g transform="matrix(1.29299,0,0,1.28718,388.459,-251.292)">
        <path d="M139.9,532.9C122.2,532.9 107.9,528 107.9,522L107.9,525.8C107.9,531.8 122.2,536.7 139.9,536.7C157.6,536.7 171.9,531.8 171.9,525.8L171.9,522C171.9,528 157.6,532.9 139.9,532.9Z" style="fill:rgb(146,146,146);fill-rule:nonzero;"/>
    </g>
    <g transform="matrix(1.29299,0,0,1.28718,388.459,-251.292)">
        <path d="M139.9,554.5C122.2,554.5 107.9,549.6 107.9,543.6L107.9,547.4C107.9,553.4 122.2,558.3 139.9,558.3C157.6,558.3 171.9,553.4 171.9,547.4L171.9,543.6C171.9,549.6 157.6,554.5 139.9,554.5Z" style="fill:rgb(146,146,146);fill-rule:nonzero;"/>
    </g>
    <g transform="matrix(1.29299,0,0,1.28718,287.387,-293.769)">
        <ellipse cx="300.4" cy="506.7" rx="28.7" ry="8.9" style="fill:rgb(146,146,146);"/>
    </g>
    <g transform="matrix(1.29299,0,0,1.28718,287.387,-293.769)">
        <path d="M300.4,560.4C282.7,560.4 268.4,555.5 268.4,549.5L268.4,562.7C268.4,568.7 282.7,573.6 300.4,573.6C318.1,573.6 332.4,568.7 332.4,562.7L332.4,549.5C332.4,555.5 318.1,560.4 300.4,560.4Z" style="fill:rgb(192,192,192);fill-rule:nonzero;"/>
    </g>
    <g transform="matrix(1.29299,0,0,1.28718,287.387,-293.769)">
        <path d="M300.4,518.5C282.7,518.5 268.4,513.6 268.4,507.6L268.4,519.9C268.4,525.9 282.7,530.8 300.4,530.8C318.1,530.8 332.4,525.9 332.4,519.9L332.4,507.6C332.4,513.6 318.1,518.5 300.4,518.5Z" style="fill:rgb(192,192,192);fill-rule:nonzero;"/>
    </g>
    <g transform="matrix(1.29299,0,0,1.28718,287.387,-293.769)">
        <path d="M300.4,539.1C282.7,539.1 268.4,534.2 268.4,528.2L268.4,541.2C268.4,547.2 282.7,552.1 300.4,552.1C318.1,552.1 332.4,547.2 332.4,541.2L332.4,528.2C332.4,534.2 318.1,539.1 300.4,539.1Z" style="fill:rgb(192,192,192);fill-rule:nonzero;"/>
    </g>
    <g transform="matrix(1.29299,0,0,1.28718,287.387,-293.769)">
        <path d="M300.4,532.9C282.7,532.9 268.4,528 268.4,522L268.4,525.8C268.4,531.8 282.7,536.7 300.4,536.7C318.1,536.7 332.4,531.8 332.4,525.8L332.4,522C332.4,528 318.1,532.9 300.4,532.9Z" style="fill:rgb(146,146,146);fill-rule:nonzero;"/>
    </g>
    <g transform="matrix(1.29299,0,0,1.28718,287.387,-293.769)">
        <path d="M300.4,554.5C282.7,554.5 268.4,549.6 268.4,543.6L268.4,547.4C268.4,553.4 282.7,558.3 300.4,558.3C318.1,558.3 332.4,553.4 332.4,547.4L332.4,543.6C332.4,549.6 318.1,554.5 300.4,554.5Z" style="fill:rgb(146,146,146);fill-rule:nonzero;"/>
    </g>
    <g transform="matrix(1.29299,0,0,1.28718,287.387,-293.769)">
        <rect x="129.9" y="458.7" width="177.4" height="4.5" style="fill:rgb(214,214,214);"/>
    </g>
    <g transform="matrix(1.78034,0,0,1.19499,24.9399,-339.595)">
        <rect x="129.9" y="458.7" width="177.4" height="4.5" style="fill:rgb(214,214,214);"/>
    </g>
    <g transform="matrix(1.29299,0,0,1.28718,287.387,-293.769)">
        <rect x="131" y="464.7" width="4.5" height="25" style="fill:rgb(214,214,214);"/>
    </g>
    <g transform="matrix(1.29299,0,0,1.28718,287.387,-293.769)">
        <circle cx="133.9" cy="460.7" r="9.4" style="fill:rgb(146,146,146);"/>
    </g>
    <g transform="matrix(1.29299,0,0,1.28718,287.387,-293.769)">
        <rect x="298" y="464.7" width="4.5" height="25" style="fill:rgb(214,214,214);"/>
    </g>
    <g transform="matrix(1.29299,0,0,1.28718,287.387,-293.769)">
        <circle cx="300.9" cy="460.7" r="9.4" style="fill:rgb(146,146,146);"/>
    </g>
    <g transform="matrix(1.29299,0,0,1.62923,287.387,-471.873)">
        <rect x="216.2" y="422.9" width="4.5" height="97.8" style="fill:rgb(214,214,214);"/>
    </g>
    <g transform="matrix(1.29299,0,0,1.28718,287.387,-293.769)">
        <circle cx="219.1" cy="460.7" r="9.4" style="fill:rgb(146,146,146);"/>
    </g>
    <g transform="matrix(0.366353,0,0,0.366353,-82.2453,-36.4463)">
        <path d="M989.8,1155.1L574.1,1155.1C537.3,1155.1 507.4,1125.2 507.4,1088.4L507.4,382.8C507.4,346 537.3,316.1 574.1,316.1L989.8,316.1C1026.6,316.1 1056.5,346 1056.5,382.8L1056.5,1088.4C1056.5,1125.3 1026.6,1155.1 989.8,1155.1Z" style="fill:rgb(50,64,133);fill-rule:nonzero;"/>
        <g>
            <rect x="577.6" y="390.3" width="408.7" height="73.9" style="fill:rgb(90,115,184);"/>
            <g>
                <path d="M802.3,406.4L604.2,406.4C599.5,406.4 595.6,410.2 595.6,415C595.6,419.7 599.4,423.6 604.2,423.6L802.4,423.6C807.1,423.6 811,419.8 811,415C810.9,410.3 807.1,406.4 802.3,406.4Z" style="fill:rgb(207,219,57);fill-rule:nonzero;"/>
                <path d="M802.3,430.9L604.2,430.9C599.5,430.9 595.6,434.7 595.6,439.5C595.6,444.2 599.4,448.1 604.2,448.1L802.4,448.1C807.1,448.1 811,444.3 811,439.5C810.9,434.8 807.1,430.9 802.3,430.9Z" style="fill:rgb(207,219,57);fill-rule:nonzero;"/>
            </g>
            <g>
                <path d="M850.6,409.8L841.4,409.8L841.4,412.4C836.4,415.5 833.1,421 833.1,427.3C833.1,433.6 836.4,439.1 841.4,442.2L841.4,444.8L850.6,444.8C860.3,444.8 868.1,437 868.1,427.3C868.1,417.6 860.3,409.8 850.6,409.8Z" style="fill:rgb(34,53,107);fill-rule:nonzero;"/>
                <circle cx="841.4" cy="427.3" r="17.5" style="fill:rgb(50,64,133);"/>
            </g>
            <g>
                <rect x="875.5" y="406.4" width="7.2" height="17.2" style="fill:rgb(207,219,57);"/>
                <rect x="885.7" y="406.4" width="7.2" height="17.2" style="fill:rgb(207,219,57);"/>
                <rect x="896" y="406.4" width="7.2" height="17.2" style="fill:rgb(207,219,57);"/>
                <rect x="906.2" y="406.4" width="7.2" height="17.2" style="fill:rgb(207,219,57);"/>
                <rect x="916.5" y="406.4" width="7.2" height="17.2" style="fill:rgb(207,219,57);"/>
                <rect x="926.7" y="406.4" width="7.2" height="17.2" style="fill:rgb(207,219,57);"/>
                <rect x="937" y="406.4" width="7.2" height="17.2" style="fill:rgb(207,219,57);"/>
                <rect x="947.2" y="406.4" width="7.2" height="17.2" style="fill:rgb(207,219,57);"/>
                <rect x="957.5" y="406.4" width="7.2" height="17.2" style="fill:rgb(207,219,57);"/>
                <rect x="967.7" y="406.4" width="7.2" height="17.2" style="fill:rgb(207,219,57);"/>
                <rect x="875.5" y="430.9" width="7.2" height="17.2" style="fill:rgb(207,219,57);"/>
                <rect x="885.7" y="430.9" width="7.2" height="17.2" style="fill:rgb(207,219,57);"/>
                <rect x="896" y="430.9" width="7.2" height="17.2" style="fill:rgb(207,219,57);"/>
                <rect x="906.2" y="430.9" width="7.2" height="17.2" style="fill:rgb(207,219,57);"/>
                <rect x="916.5" y="430.9" width="7.2" height="17.2" style="fill:rgb(207,219,57);"/>
                <rect x="926.7" y="430.9" width="7.2" height="17.2" style="fill:rgb(207,219,57);"/>
                <rect x="937" y="430.9" width="7.2" height="17.2" style="fill:rgb(207,219,57);"/>
                <rect x="947.2" y="430.9" width="7.2" height="17.2" style="fill:rgb(207,219,57);"/>
                <rect x="957.5" y="430.9" width="7.2" height="17.2" style="fill:rgb(207,219,57);"/>
                <rect x="967.7" y="430.9" width="7.2" height="17.2" style="fill:rgb(207,219,57);"/>
            </g>
        </g>
        <g>
            <rect x="577.6" y="490.3" width="408.7" height="73.9" style="fill:rgb(90,115,184);"/>
            <g>
                <path d="M802.3,506.4L604.2,506.4C599.5,506.4 595.6,510.2 595.6,515C595.6,519.7 599.4,523.6 604.2,523.6L802.4,523.6C807.1,523.6 811,519.8 811,515C810.9,510.3 807.1,506.4 802.3,506.4Z" style="fill:rgb(207,219,57);fill-rule:nonzero;"/>
                <path d="M802.3,530.9L604.2,530.9C599.5,530.9 595.6,534.7 595.6,539.5C595.6,544.2 599.4,548.1 604.2,548.1L802.4,548.1C807.1,548.1 811,544.3 811,539.5C810.9,534.8 807.1,530.9 802.3,530.9Z" style="fill:rgb(207,219,57);fill-rule:nonzero;"/>
            </g>
            <g>
                <path d="M850.6,509.8L841.4,509.8L841.4,512.4C836.4,515.5 833.1,521 833.1,527.3C833.1,533.6 836.4,539.1 841.4,542.2L841.4,544.8L850.6,544.8C860.3,544.8 868.1,537 868.1,527.3C868.1,517.6 860.3,509.8 850.6,509.8Z" style="fill:rgb(34,53,107);fill-rule:nonzero;"/>
                <circle cx="841.4" cy="527.3" r="17.5" style="fill:rgb(50,64,133);"/>
            </g>
            <g>
                <rect x="875.5" y="506.4" width="7.2" height="17.2" style="fill:rgb(207,219,57);"/>
                <rect x="885.7" y="506.4" width="7.2" height="17.2" style="fill:rgb(207,219,57);"/>
                <rect x="896" y="506.4" width="7.2" height="17.2" style="fill:rgb(207,219,57);"/>
                <rect x="906.2" y="506.4" width="7.2" height="17.2" style="fill:rgb(207,219,57);"/>
                <rect x="916.5" y="506.4" width="7.2" height="17.2" style="fill:rgb(207,219,57);"/>
                <rect x="926.7" y="506.4" width="7.2" height="17.2" style="fill:rgb(207,219,57);"/>
                <rect x="937" y="506.4" width="7.2" height="17.2" style="fill:rgb(207,219,57);"/>
                <rect x="947.2" y="506.4" width="7.2" height="17.2" style="fill:rgb(207,219,57);"/>
                <rect x="957.5" y="506.4" width="7.2" height="17.2" style="fill:rgb(207,219,57);"/>
                <rect x="967.7" y="506.4" width="7.2" height="17.2" style="fill:rgb(207,219,57);"/>
                <rect x="875.5" y="530.9" width="7.2" height="17.2" style="fill:rgb(207,219,57);"/>
                <rect x="885.7" y="530.9" width="7.2" height="17.2" style="fill:rgb(207,219,57);"/>
                <rect x="896" y="530.9" width="7.2" height="17.2" style="fill:rgb(207,219,57);"/>
                <rect x="906.2" y="530.9" width="7.2" height="17.2" style="fill:rgb(207,219,57);"/>
                <rect x="916.5" y="530.9" width="7.2" height="17.2" style="fill:rgb(207,219,57);"/>
                <rect x="926.7" y="530.9" width="7.2" height="17.2" style="fill:rgb(207,219,57);"/>
                <rect x="937" y="530.9" width="7.2" height="17.2" style="fill:rgb(207,219,57);"/>
                <rect x="947.2" y="530.9" width="7.2" height="17.2" style="fill:rgb(207,219,57);"/>
                <rect x="957.5" y="530.9" width="7.2" height="17.2" style="fill:rgb(207,219,57);"/>
                <rect x="967.7" y="530.9" width="7.2" height="17.2" style="fill:rgb(207,219,57);"/>
            </g>
        </g>
        <g>
            <rect x="577.6" y="590.3" width="408.7" height="73.9" style="fill:rgb(90,115,184);"/>
            <g>
                <path d="M802.3,606.4L604.2,606.4C599.5,606.4 595.6,610.2 595.6,615C595.6,619.7 599.4,623.6 604.2,623.6L802.4,623.6C807.1,623.6 811,619.8 811,615C810.9,610.3 807.1,606.4 802.3,606.4Z" style="fill:rgb(207,219,57);fill-rule:nonzero;"/>
                <path d="M802.3,630.9L604.2,630.9C599.5,630.9 595.6,634.7 595.6,639.5C595.6,644.2 599.4,648.1 604.2,648.1L802.4,648.1C807.1,648.1 811,644.3 811,639.5C810.9,634.8 807.1,630.9 802.3,630.9Z" style="fill:rgb(207,219,57);fill-rule:nonzero;"/>
            </g>
            <g>
                <path d="M850.6,609.8L841.4,609.8L841.4,612.4C836.4,615.5 833.1,621 833.1,627.3C833.1,633.6 836.4,639.1 841.4,642.2L841.4,644.8L850.6,644.8C860.3,644.8 868.1,637 868.1,627.3C868.1,617.6 860.3,609.8 850.6,609.8Z" style="fill:rgb(34,53,107);fill-rule:nonzero;"/>
                <circle cx="841.4" cy="627.3" r="17.5" style="fill:rgb(50,64,133);"/>
            </g>
            <g>
                <rect x="875.5" y="606.4" width="7.2" height="17.2" style="fill:rgb(207,219,57);"/>
                <rect x="885.7" y="606.4" width="7.2" height="17.2" style="fill:rgb(207,219,57);"/>
                <rect x="896" y="606.4" width="7.2" height="17.2" style="fill:rgb(207,219,57);"/>
                <rect x="906.2" y="606.4" width="7.2" height="17.2" style="fill:rgb(207,219,57);"/>
                <rect x="916.5" y="606.4" width="7.2" height="17.2" style="fill:rgb(207,219,57);"/>
                <rect x="926.7" y="606.4" width="7.2" height="17.2" style="fill:rgb(207,219,57);"/>
                <rect x="937" y="606.4" width="7.2" height="17.2" style="fill:rgb(207,219,57);"/>
                <rect x="947.2" y="606.4" width="7.2" height="17.2" style="fill:rgb(207,219,57);"/>
                <rect x="957.5" y="606.4" width="7.2" height="17.2" style="fill:rgb(207,219,57);"/>
                <rect x="967.7" y="606.4" width="7.2" height="17.2" style="fill:rgb(207,219,57);"/>
                <rect x="875.5" y="630.9" width="7.2" height="17.2" style="fill:rgb(207,219,57);"/>
                <rect x="885.7" y="630.9" width="7.2" height="17.2" style="fill:rgb(207,219,57);"/>
                <rect x="896" y="630.9" width="7.2" height="17.2" style="fill:rgb(207,219,57);"/>
                <rect x="906.2" y="630.9" width="7.2" height="17.2" style="fill:rgb(207,219,57);"/>
                <rect x="916.5" y="630.9" width="7.2" height="17.2" style="fill:rgb(207,219,57);"/>
                <rect x="926.7" y="630.9" width="7.2" height="17.2" style="fill:rgb(207,219,57);"/>
                <rect x="937" y="630.9" width="7.2" height="17.2" style="fill:rgb(207,219,57);"/>
                <rect x="947.2" y="630.9" width="7.2" height="17.2" style="fill:rgb(207,219,57);"/>
                <rect x="957.5" y="630.9" width="7.2" height="17.2" style="fill:rgb(207,219,57);"/>
                <rect x="967.7" y="630.9" width="7.2" height="17.2" style="fill:rgb(207,219,57);"/>
            </g>
        </g>
        <g>
            <rect x="577.6" y="690.3" width="408.7" height="73.9" style="fill:rgb(90,115,184);"/>
            <g>
                <path d="M802.3,706.4L604.2,706.4C599.5,706.4 595.6,710.2 595.6,715C595.6,719.7 599.4,723.6 604.2,723.6L802.4,723.6C807.1,723.6 811,719.8 811,715C810.9,710.3 807.1,706.4 802.3,706.4Z" style="fill:rgb(207,219,57);fill-rule:nonzero;"/>
                <path d="M802.3,730.9L604.2,730.9C599.5,730.9 595.6,734.7 595.6,739.5C595.6,744.2 599.4,748.1 604.2,748.1L802.4,748.1C807.1,748.1 811,744.3 811,739.5C810.9,734.8 807.1,730.9 802.3,730.9Z" style="fill:rgb(207,219,57);fill-rule:nonzero;"/>
            </g>
            <g>
                <path d="M850.6,709.8L841.4,709.8L841.4,712.4C836.4,715.5 833.1,721 833.1,727.3C833.1,733.6 836.4,739.1 841.4,742.2L841.4,744.8L850.6,744.8C860.3,744.8 868.1,737 868.1,727.3C868.1,717.6 860.3,709.8 850.6,709.8Z" style="fill:rgb(34,53,107);fill-rule:nonzero;"/>
                <circle cx="841.4" cy="727.3" r="17.5" style="fill:rgb(50,64,133);"/>
            </g>
            <g>
                <rect x="875.5" y="706.4" width="7.2" height="17.2" style="fill:rgb(207,219,57);"/>
                <rect x="885.7" y="706.4" width="7.2" height="17.2" style="fill:rgb(207,219,57);"/>
                <rect x="896" y="706.4" width="7.2" height="17.2" style="fill:rgb(207,219,57);"/>
                <rect x="906.2" y="706.4" width="7.2" height="17.2" style="fill:rgb(207,219,57);"/>
                <rect x="916.5" y="706.4" width="7.2" height="17.2" style="fill:rgb(207,219,57);"/>
                <rect x="926.7" y="706.4" width="7.2" height="17.2" style="fill:rgb(207,219,57);"/>
                <rect x="937" y="706.4" width="7.2" height="17.2" style="fill:rgb(207,219,57);"/>
                <rect x="947.2" y="706.4" width="7.2" height="17.2" style="fill:rgb(207,219,57);"/>
                <rect x="957.5" y="706.4" width="7.2" height="17.2" style="fill:rgb(207,219,57);"/>
                <rect x="967.7" y="706.4" width="7.2" height="17.2" style="fill:rgb(207,219,57);"/>
                <rect x="875.5" y="730.9" width="7.2" height="17.2" style="fill:rgb(207,219,57);"/>
                <rect x="885.7" y="730.9" width="7.2" height="17.2" style="fill:rgb(207,219,57);"/>
                <rect x="896" y="730.9" width="7.2" height="17.2" style="fill:rgb(207,219,57);"/>
                <rect x="906.2" y="730.9" width="7.2" height="17.2" style="fill:rgb(207,219,57);"/>
                <rect x="916.5" y="730.9" width="7.2" height="17.2" style="fill:rgb(207,219,57);"/>
                <rect x="926.7" y="730.9" width="7.2" height="17.2" style="fill:rgb(207,219,57);"/>
                <rect x="937" y="730.9" width="7.2" height="17.2" style="fill:rgb(207,219,57);"/>
                <rect x="947.2" y="730.9" width="7.2" height="17.2" style="fill:rgb(207,219,57);"/>
                <rect x="957.5" y="730.9" width="7.2" height="17.2" style="fill:rgb(207,219,57);"/>
                <rect x="967.7" y="730.9" width="7.2" height="17.2" style="fill:rgb(207,219,57);"/>
            </g>
        </g>
        <g>
            <rect x="577.6" y="790.3" width="408.7" height="73.9" style="fill:rgb(90,115,184);"/>
            <g>
                <path d="M802.3,806.4L604.2,806.4C599.5,806.4 595.6,810.2 595.6,815C595.6,819.7 599.4,823.6 604.2,823.6L802.4,823.6C807.1,823.6 811,819.8 811,815C810.9,810.3 807.1,806.4 802.3,806.4Z" style="fill:rgb(207,219,57);fill-rule:nonzero;"/>
                <path d="M802.3,830.9L604.2,830.9C599.5,830.9 595.6,834.7 595.6,839.5C595.6,844.2 599.4,848.1 604.2,848.1L802.4,848.1C807.1,848.1 811,844.3 811,839.5C810.9,834.8 807.1,830.9 802.3,830.9Z" style="fill:rgb(207,219,57);fill-rule:nonzero;"/>
            </g>
            <g>
                <path d="M850.6,809.8L841.4,809.8L841.4,812.4C836.4,815.5 833.1,821 833.1,827.3C833.1,833.6 836.4,839.1 841.4,842.2L841.4,844.8L850.6,844.8C860.3,844.8 868.1,837 868.1,827.3C868.1,817.6 860.3,809.8 850.6,809.8Z" style="fill:rgb(34,53,107);fill-rule:nonzero;"/>
                <circle cx="841.4" cy="827.3" r="17.5" style="fill:rgb(50,64,133);"/>
            </g>
            <g>
                <rect x="875.5" y="806.4" width="7.2" height="17.2" style="fill:rgb(207,219,57);"/>
                <rect x="885.7" y="806.4" width="7.2" height="17.2" style="fill:rgb(207,219,57);"/>
                <rect x="896" y="806.4" width="7.2" height="17.2" style="fill:rgb(207,219,57);"/>
                <rect x="906.2" y="806.4" width="7.2" height="17.2" style="fill:rgb(207,219,57);"/>
                <rect x="916.5" y="806.4" width="7.2" height="17.2" style="fill:rgb(207,219,57);"/>
                <rect x="926.7" y="806.4" width="7.2" height="17.2" style="fill:rgb(207,219,57);"/>
                <rect x="937" y="806.4" width="7.2" height="17.2" style="fill:rgb(207,219,57);"/>
                <rect x="947.2" y="806.4" width="7.2" height="17.2" style="fill:rgb(207,219,57);"/>
                <rect x="957.5" y="806.4" width="7.2" height="17.2" style="fill:rgb(207,219,57);"/>
                <rect x="967.7" y="806.4" width="7.2" height="17.2" style="fill:rgb(207,219,57);"/>
                <rect x="875.5" y="830.9" width="7.2" height="17.2" style="fill:rgb(207,219,57);"/>
                <rect x="885.7" y="830.9" width="7.2" height="17.2" style="fill:rgb(207,219,57);"/>
                <rect x="896" y="830.9" width="7.2" height="17.2" style="fill:rgb(207,219,57);"/>
                <rect x="906.2" y="830.9" width="7.2" height="17.2" style="fill:rgb(207,219,57);"/>
                <rect x="916.5" y="830.9" width="7.2" height="17.2" style="fill:rgb(207,219,57);"/>
                <rect x="926.7" y="830.9" width="7.2" height="17.2" style="fill:rgb(207,219,57);"/>
                <rect x="937" y="830.9" width="7.2" height="17.2" style="fill:rgb(207,219,57);"/>
                <rect x="947.2" y="830.9" width="7.2" height="17.2" style="fill:rgb(207,219,57);"/>
                <rect x="957.5" y="830.9" width="7.2" height="17.2" style="fill:rgb(207,219,57);"/>
                <rect x="967.7" y="830.9" width="7.2" height="17.2" style="fill:rgb(207,219,57);"/>
            </g>
        </g>
        <rect x="577.6" y="894.3" width="408.7" height="195" style="fill:rgb(90,115,184);"/>
        <g>
            <rect x="589.5" y="904.5" width="34" height="32.6" style="fill:rgb(207,219,57);"/>
            <rect x="589.5" y="950.8" width="34" height="32.6" style="fill:rgb(207,219,57);"/>
            <rect x="589.5" y="997" width="34" height="32.6" style="fill:rgb(207,219,57);"/>
            <rect x="589.5" y="1043.3" width="34" height="32.6" style="fill:rgb(207,219,57);"/>
            <rect x="637.5" y="904.5" width="34" height="32.6" style="fill:rgb(207,219,57);"/>
            <rect x="637.5" y="950.8" width="34" height="32.6" style="fill:rgb(207,219,57);"/>
            <rect x="637.5" y="997" width="34" height="32.6" style="fill:rgb(207,219,57);"/>
            <rect x="637.5" y="1043.3" width="34" height="32.6" style="fill:rgb(207,219,57);"/>
            <rect x="685.4" y="904.5" width="34" height="32.6" style="fill:rgb(207,219,57);"/>
            <rect x="685.4" y="950.8" width="34" height="32.6" style="fill:rgb(207,219,57);"/>
            <rect x="685.4" y="997" width="34" height="32.6" style="fill:rgb(207,219,57);"/>
            <rect x="685.4" y="1043.3" width="34" height="32.6" style="fill:rgb(207,219,57);"/>
            <rect x="733.4" y="904.5" width="34" height="32.6" style="fill:rgb(207,219,57);"/>
            <rect x="733.4" y="950.8" width="34" height="32.6" style="fill:rgb(207,219,57);"/>
            <rect x="733.4" y="997" width="34" height="32.6" style="fill:rgb(207,219,57);"/>
            <rect x="733.4" y="1043.3" width="34" height="32.6" style="fill:rgb(207,219,57);"/>
            <rect x="781.4" y="904.5" width="34" height="32.6" style="fill:rgb(207,219,57);"/>
            <rect x="781.4" y="950.8" width="34" height="32.6" style="fill:rgb(207,219,57);"/>
            <rect x="781.4" y="997" width="34" height="32.6" style="fill:rgb(207,219,57);"/>
            <rect x="781.4" y="1043.3" width="34" height="32.6" style="fill:rgb(207,219,57);"/>
            <rect x="829.3" y="904.5" width="34" height="32.6" style="fill:rgb(207,219,57);"/>
            <rect x="829.3" y="950.8" width="34" height="32.6" style="fill:rgb(207,219,57);"/>
            <rect x="829.3" y="997" width="34" height="32.6" style="fill:rgb(207,219,57);"/>
            <rect x="829.3" y="1043.3" width="34" height="32.6" style="fill:rgb(207,219,57);"/>
            <rect x="877.3" y="904.5" width="34" height="32.6" style="fill:rgb(207,219,57);"/>
            <rect x="877.3" y="950.8" width="34" height="32.6" style="fill:rgb(207,219,57);"/>
            <rect x="877.3" y="997" width="34" height="32.6" style="fill:rgb(207,219,57);"/>
            <rect x="877.3" y="1043.3" width="34" height="32.6" style="fill:rgb(207,219,57);"/>
            <g>
                <path d="M936.1,904.5C931.2,904.5 927.3,908.3 927.3,912.9L927.3,1004.9C927.3,1009.6 931.2,1013.3 936.1,1013.3C941,1013.3 944.9,1009.5 944.9,1004.9L944.9,912.9C944.9,908.3 941,904.5 936.1,904.5Z" style="fill:rgb(207,219,57);fill-rule:nonzero;"/>
                <path d="M962.5,904.5C957.6,904.5 953.7,908.3 953.7,912.9L953.7,1004.9C953.7,1009.6 957.6,1013.3 962.5,1013.3C967.4,1013.3 971.3,1009.5 971.3,1004.9L971.3,912.9C971.3,908.3 967.4,904.5 962.5,904.5Z" style="fill:rgb(207,219,57);fill-rule:nonzero;"/>
            </g>
            <g>
                <path d="M936.1,1023.3C931.2,1023.3 927.3,1027.1 927.3,1031.7L927.3,1067.4C927.3,1072.1 931.2,1075.8 936.1,1075.8C941,1075.8 944.9,1072 944.9,1067.4L944.9,1031.7C944.9,1027.1 941,1023.3 936.1,1023.3Z" style="fill:rgb(207,219,57);fill-rule:nonzero;"/>
                <path d="M962.5,1023.3C957.6,1023.3 953.7,1027.1 953.7,1031.7L953.7,1067.4C953.7,1072.1 957.6,1075.8 962.5,1075.8C967.4,1075.8 971.3,1072 971.3,1067.4L971.3,1031.7C971.3,1027.1 967.4,1023.3 962.5,1023.3Z" style="fill:rgb(207,219,57);fill-rule:nonzero;"/>
            </g>
        </g>
    </g>
    <g transform="matrix(1.29299,0,0,1.28718,396.387,-381.769)">
        <circle cx="133.9" cy="460.7" r="9.4" style="fill:rgb(146,146,146);"/>
    </g>
</svg>
